<svg width="24" height="24" viewBox="0 0 24 24" fill="none" xmlns="http://www.w3.org/2000/svg">
<path d="M13.643 11.3817C13.7138 11.5201 13.8546 11.6001 14.0002 11.6001C14.061 11.6001 14.1234 11.5861 14.1814 11.5565C14.205 11.5445 16.5594 10.3485 17.7206 9.98168C17.931 9.91488 18.0478 9.69007 17.981 9.4797C17.9145 9.26928 17.6914 9.15209 17.479 9.21852C16.2558 9.60532 13.9174 10.7933 13.8182 10.8437C13.6214 10.9437 13.543 11.1845 13.643 11.3817Z" fill="#524A49"/>
<path d="M14.0002 6.80014C14.061 6.80014 14.1234 6.78613 14.1814 6.75655C14.205 6.74455 16.5594 5.54855 17.7206 5.18175C17.931 5.11496 18.0478 4.89015 17.981 4.67977C17.9145 4.46935 17.6914 4.35217 17.479 4.41859C16.2558 4.8054 13.9174 5.99339 13.8182 6.04378C13.6214 6.14376 13.543 6.38455 13.643 6.58176C13.7138 6.72013 13.8546 6.80014 14.0002 6.80014Z" fill="#524A49"/>
<path d="M23.5998 6.00013C23.3786 6.00013 23.1998 6.17933 23.1998 6.40011V22C23.1998 22.6615 22.6614 23.1999 21.9998 23.1999H12.3999V22.2796C12.9831 22.0756 14.5023 21.6 15.9999 21.6C19.4842 21.6 21.8502 22.3716 21.8738 22.3795C21.9942 22.4195 22.1286 22.3996 22.2338 22.3243C22.3382 22.2491 22.3998 22.1283 22.3998 21.9999V4.40016C22.3998 4.21257 22.2698 4.05015 22.0866 4.00974C22.0866 4.00974 21.773 3.93976 21.237 3.84132C21.0206 3.80134 20.8114 3.94534 20.7714 4.16213C20.7314 4.37973 20.875 4.58813 21.0922 4.62811C21.2966 4.66571 21.4678 4.69889 21.5998 4.72533V21.4684C20.6934 21.2307 18.6806 20.8 15.9998 20.8C14.257 20.8 12.5451 21.3724 12.0154 21.5664C11.5446 21.3584 10.1215 20.8 8.39987 20.8C5.64468 20.8 3.37511 21.2544 2.39993 21.4852V4.70972C3.19872 4.51332 5.55791 4.00014 8.39987 4.00014C9.85828 4.00014 11.109 4.45412 11.5999 4.65933V20.4C11.5999 20.544 11.6774 20.6772 11.8026 20.748C11.9278 20.8192 12.0822 20.8172 12.2058 20.7428C12.2455 20.7192 16.2086 18.352 19.7262 17.1796C19.8898 17.1248 19.9998 16.9724 19.9998 16.8V0.400171C19.9998 0.268969 19.9354 0.146158 19.8274 0.0713929C19.7202 -0.00341884 19.5826 -0.0206218 19.459 0.025409C16.2586 1.22577 13.0203 3.24096 12.9879 3.26097C12.8006 3.37816 12.7435 3.62495 12.8606 3.81217C12.9774 3.99939 13.2242 4.05657 13.4118 3.93939C13.4414 3.92059 16.2586 2.16781 19.1998 0.985025V16.5137C16.4694 17.4625 13.6186 19.0117 12.3998 19.7052V4.40016C12.3998 4.24857 12.3142 4.11015 12.1786 4.04218C12.1098 4.0082 10.4706 3.20017 8.39987 3.20017C4.78552 3.20017 2.00675 3.98218 1.88993 4.01574C1.71833 4.06454 1.59992 4.22176 1.59992 4.40016V22C1.59992 22.1252 1.65912 22.2436 1.75873 22.3192C1.82914 22.3724 1.91393 22.4 1.99995 22.4C2.03675 22.4 2.07354 22.3948 2.10954 22.3844C2.13715 22.3768 4.90312 21.6 8.39987 21.6C9.86226 21.6 11.1118 22.0552 11.5999 22.2596V23.2H1.99995C1.33836 23.2 0.799961 22.6616 0.799961 22V6.40016C0.799961 6.17938 0.620759 6.00018 0.39998 6.00018C0.179201 6.00018 0 6.17938 0 6.40016V22C0 23.1028 0.897179 24 2 24H21.9998C23.1026 24 23.9998 23.1028 23.9998 22V6.40016C23.9998 6.17933 23.821 6.00013 23.5998 6.00013Z" fill="#524A49"/>
<path d="M13.643 8.98167C13.7138 9.12009 13.8546 9.20006 14.0002 9.20006C14.061 9.20006 14.1234 9.18605 14.1814 9.15647C14.205 9.14447 16.5594 7.94846 17.7206 7.58167C17.931 7.51488 18.0478 7.29006 17.981 7.07969C17.9145 6.86927 17.6914 6.75209 17.479 6.81851C16.2558 7.20532 13.9174 8.3933 13.8182 8.44369C13.6214 8.54368 13.543 8.78452 13.643 8.98167Z" fill="#524A49"/>
<path d="M13.643 13.7816C13.7138 13.92 13.8546 14 14.0002 14C14.061 14 14.1234 13.986 14.1814 13.9564C14.205 13.9444 16.5594 12.7484 17.7206 12.3816C17.931 12.3148 18.0478 12.09 17.981 11.8796C17.9145 11.6692 17.6914 11.552 17.479 11.6184C16.2558 12.0053 13.9174 13.1932 13.8182 13.2436C13.6214 13.3436 13.543 13.5845 13.643 13.7816Z" fill="#524A49"/>
<path d="M9.69108 7.42333C7.22112 6.84373 4.41432 7.58214 4.29633 7.61373C4.08315 7.67092 3.95635 7.89011 4.01354 8.10371C4.06154 8.28249 4.22312 8.4001 4.39955 8.4001C4.43396 8.4001 4.46874 8.3957 4.50357 8.38651C4.53038 8.37891 7.23274 7.66811 9.50873 8.2021C9.72272 8.25212 9.93914 8.1189 9.98953 7.9037C10.0399 7.68892 9.90628 7.47372 9.69108 7.42333Z" fill="#524A49"/>
<path d="M9.69108 9.82331C7.22112 9.24413 4.41432 9.98212 4.29633 10.0137C4.08315 10.0709 3.95635 10.2901 4.01354 10.5037C4.06154 10.6825 4.22312 10.8001 4.39955 10.8001C4.43396 10.8001 4.46874 10.7957 4.50357 10.7865C4.53038 10.7789 7.23274 10.0681 9.50873 10.6021C9.72272 10.6521 9.93914 10.5189 9.98953 10.3037C10.0399 10.0889 9.90628 9.8737 9.69108 9.82331Z" fill="#524A49"/>
<path d="M13.643 16.1816C13.7138 16.32 13.8546 16.4 14.0002 16.4C14.061 16.4 14.1234 16.386 14.1814 16.3564C14.205 16.3444 16.5594 15.1484 17.7206 14.7816C17.931 14.7148 18.0478 14.49 17.981 14.2796C17.9145 14.0693 17.6914 13.952 17.479 14.0184C16.2558 14.4052 13.9174 15.5932 13.8182 15.6436C13.6214 15.7436 13.543 15.9845 13.643 16.1816Z" fill="#524A49"/>
<path d="M9.69108 12.2233C7.22112 11.6441 4.41432 12.3817 4.29633 12.4137C4.08315 12.4709 3.95635 12.6901 4.01354 12.9037C4.06154 13.0824 4.22312 13.2005 4.39955 13.2005C4.43396 13.2005 4.46874 13.1957 4.50357 13.1865C4.53038 13.1789 7.23274 12.4681 9.50873 13.0021C9.72272 13.0521 9.93914 12.9189 9.98953 12.7037C10.0399 12.4889 9.90628 12.2737 9.69108 12.2233Z" fill="#524A49"/>
<path d="M9.69108 17.0232C7.22112 16.4436 4.41432 17.182 4.29633 17.2136C4.08315 17.2708 3.95635 17.4901 4.01354 17.7036C4.06154 17.8824 4.22312 18.0004 4.39955 18.0004C4.43396 18.0004 4.46874 17.9956 4.50357 17.9864C4.53038 17.9788 7.23274 17.268 9.50873 17.802C9.72272 17.8516 9.93914 17.7188 9.98953 17.5036C10.0399 17.2888 9.90628 17.0736 9.69108 17.0232Z" fill="#524A49"/>
<path d="M9.69108 14.6233C7.22112 14.0437 4.41432 14.7817 4.29633 14.8137C4.08315 14.8709 3.95635 15.0901 4.01354 15.3037C4.06154 15.4824 4.22312 15.6005 4.39955 15.6005C4.43396 15.6005 4.46874 15.5957 4.50357 15.5865C4.53038 15.5789 7.23274 14.8681 9.50873 15.402C9.72272 15.4521 9.93914 15.3188 9.98953 15.1036C10.0399 14.8889 9.90628 14.6737 9.69108 14.6233Z" fill="#524A49"/>
</svg>
