<svg width="512" height="466" viewBox="0 0 512 466" fill="none" xmlns="http://www.w3.org/2000/svg">
<g filter="url(#filter0_d)">
<path d="M506.555 181.064L263.859 3.367C259.179 -0.0589995 252.821 -0.0589995 248.143 3.367L5.44497 181.064C-0.483032 185.405 -1.77103 193.729 2.56997 199.657C6.91097 205.585 15.236 206.871 21.163 202.532L256 30.588L490.837 202.531C493.205 204.266 495.957 205.101 498.685 205.101C502.781 205.101 506.823 203.216 509.429 199.656C513.771 193.729 512.483 185.405 506.555 181.064Z" fill="black"/>
<path d="M442.246 205.543C434.9 205.543 428.943 211.499 428.943 218.846V430.595H322.521V315.009C322.521 278.329 292.679 248.489 256.001 248.489C219.323 248.489 189.481 278.331 189.481 315.009V430.596H83.058V218.847C83.058 211.5 77.101 205.544 69.755 205.544C62.409 205.544 56.452 211.5 56.452 218.847V443.9C56.452 451.247 62.409 457.203 69.755 457.203H202.784C209.78 457.203 215.505 451.798 216.035 444.936C216.067 444.625 216.087 444.285 216.087 443.9V315.01C216.087 293.001 233.992 275.096 256.001 275.096C278.01 275.096 295.915 293.002 295.915 315.01V443.9C295.915 444.283 295.935 444.617 295.967 444.924C296.491 451.791 302.218 457.203 309.218 457.203H442.247C449.594 457.203 455.55 451.247 455.55 443.9V218.847C455.549 211.499 449.593 205.543 442.246 205.543Z" fill="black"/>
</g>
<defs>
<filter id="filter0_d" x="-4.00061" y="0.797501" width="520.001" height="464.406" filterUnits="userSpaceOnUse" color-interpolation-filters="sRGB">
<feFlood flood-opacity="0" result="BackgroundImageFix"/>
<feColorMatrix in="SourceAlpha" type="matrix" values="0 0 0 0 0 0 0 0 0 0 0 0 0 0 0 0 0 0 127 0"/>
<feOffset dy="4"/>
<feGaussianBlur stdDeviation="2"/>
<feColorMatrix type="matrix" values="0 0 0 0 0 0 0 0 0 0 0 0 0 0 0 0 0 0 0.25 0"/>
<feBlend mode="normal" in2="BackgroundImageFix" result="effect1_dropShadow"/>
<feBlend mode="normal" in="SourceGraphic" in2="effect1_dropShadow" result="shape"/>
</filter>
</defs>
</svg>
