<svg width="24" height="24" viewBox="0 0 24 24" fill="none" xmlns="http://www.w3.org/2000/svg">
<path d="M12 0C5.38332 0 0 5.38299 0 12C0 18.6167 5.38332 24 12 24C18.617 24 24 18.6167 24 12C24 5.38299 18.617 0 12 0ZM5.96035 20.7813V16.575C5.96363 15.2807 6.92993 14.1908 8.21441 14.0325C9.91207 16.011 12.8474 16.3475 14.9484 14.8045C15.2557 14.5798 15.5362 14.3209 15.7846 14.0325C17.0697 14.1908 18.036 15.2803 18.0396 16.575V20.7813C16.2781 21.9642 14.2377 22.6579 12 22.6579C9.76233 22.6579 7.72192 21.9642 5.96035 20.7813ZM19.3818 19.6872V16.575C19.3762 14.4192 17.6287 12.6737 15.4727 12.6711C15.2594 12.6711 15.0585 12.773 14.932 12.945C14.2465 13.8782 13.158 14.4297 12 14.4297C10.842 14.4297 9.75315 13.8782 9.06766 12.945C8.94151 12.773 8.74065 12.6711 8.52733 12.6711C6.37158 12.6737 4.62378 14.4192 4.61821 16.575V19.6872C2.52438 17.6779 1.33985 14.9019 1.33821 12C1.33821 6.1232 6.12124 1.34214 11.998 1.34214C17.8748 1.34214 22.6605 6.12353 22.6605 12C22.6595 14.9019 21.4753 17.6779 19.3818 19.6872Z" fill="#524A49"/>
<path d="M12.0001 4.03954C9.64606 4.03954 7.7377 5.94757 7.7377 8.30156C7.7377 10.6559 9.64606 12.5639 12.0001 12.5639C14.3541 12.5639 16.2624 10.6556 16.2624 8.30156C16.2598 5.94888 14.3531 4.04216 12.0001 4.03954ZM12.0001 11.2218C10.3873 11.2218 9.07985 9.91437 9.07985 8.30156C9.07985 6.68876 10.3873 5.38135 12.0001 5.38135C13.6129 5.38135 14.9203 6.68876 14.9203 8.30156C14.9183 9.91371 13.6122 11.2198 12.0001 11.2218Z" fill="#524A49"/>
</svg>
